<svg width="91" height="48" viewBox="0 0 91 48" fill="none" xmlns="http://www.w3.org/2000/svg">
<path d="M51.3422 35.3795H55.4029C55.4424 35.3823 55.482 35.377 55.5194 35.3641C55.5568 35.3512 55.5912 35.3309 55.6204 35.3044C55.6496 35.2779 55.6731 35.2457 55.6895 35.2099C55.7058 35.1741 55.7146 35.1354 55.7154 35.0961V23.9579C55.7154 20.7995 57.2777 19.1353 59.975 19.1353C62.6724 19.1353 64.2062 20.7995 64.2062 23.9579V35.0975C64.207 35.1368 64.2158 35.1755 64.2321 35.2113C64.2484 35.2472 64.2719 35.2793 64.3012 35.3058C64.3304 35.3323 64.3647 35.3526 64.4021 35.3656C64.4395 35.3785 64.4792 35.3837 64.5187 35.3809H68.5793C68.6188 35.3837 68.6584 35.3785 68.6958 35.3656C68.7332 35.3526 68.7676 35.3323 68.7968 35.3058C68.826 35.2793 68.8495 35.2472 68.8659 35.2113C68.8822 35.1755 68.891 35.1368 68.8918 35.0975V23.9863C68.8918 19.2196 66.223 15.0459 59.9743 15.0459C53.7257 15.0459 51.0298 19.2196 51.0298 23.9863V35.0975C51.0307 35.1367 51.0397 35.1753 51.0561 35.2109C51.0725 35.2466 51.096 35.2785 51.1253 35.3049C51.1545 35.3312 51.1888 35.3514 51.2261 35.3643C51.2634 35.3771 51.3029 35.3823 51.3422 35.3795Z" fill="#00A868"/>
<path d="M23.3994 35.6337C24.8762 35.6337 25.8414 35.4644 26.2673 35.295C26.3308 35.2698 26.3858 35.2273 26.4261 35.1724C26.4664 35.1175 26.4902 35.0525 26.4949 34.9847V31.6548C26.4949 31.4572 26.4092 31.3445 26.1539 31.3445C25.9548 31.3445 25.387 31.4572 24.9325 31.4572C23.1719 31.4572 22.4057 30.8089 22.4057 29.2857V19.8968H26.1539C26.2365 19.896 26.3155 19.8631 26.374 19.8051C26.4324 19.747 26.4656 19.6685 26.4663 19.5865V15.9484C26.4656 15.8663 26.4324 15.7878 26.374 15.7298C26.3155 15.6717 26.2365 15.6388 26.1539 15.6381H22.2637V12.4796C22.2637 12.141 22.121 12 21.8656 12H18.0318C17.7201 12 17.5781 12.1417 17.5781 12.4796V29.7667C17.5781 33.9695 19.9345 35.6337 23.3994 35.6337Z" fill="#00A868"/>
<path d="M7.10042 35.859C11.6726 35.859 14.9385 33.0668 14.9385 29.4287C14.9385 25.3394 12.2119 24.1555 8.49226 23.3655L6.64599 22.9709C5.25487 22.6606 4.48797 22.0116 4.48797 20.912C4.48797 19.5021 5.90763 18.7405 7.86732 18.7405C10.6217 18.7405 12.4958 19.9811 12.7798 19.9811C12.8587 19.9759 12.9347 19.9495 12.9998 19.9049C13.0648 19.8602 13.1165 19.7989 13.1493 19.7274L13.8877 16.992C14.0303 16.625 14.0011 16.5407 13.745 16.3997C12.0978 15.5537 10.3371 15.0741 7.83807 15.0741C3.20956 15.0741 0 17.7253 0 21.2507C0 24.5806 2.58463 26.4113 6.27788 27.202L8.15197 27.5966C9.65723 27.9069 10.5062 28.4992 10.5062 29.7681C10.5062 31.0653 9.48388 32.1933 7.06975 32.1933C3.66186 32.1933 1.33333 30.84 0.964509 30.84C0.736936 30.84 0.652044 30.9527 0.56715 31.319L0.0841801 33.6039C-0.0584989 34.0828 0.0841804 34.3931 0.396648 34.5341C1.56162 35.1824 4.74194 35.859 7.10042 35.859Z" fill="#00A868"/>
<path d="M38.0815 31.9391C35.0995 31.9391 32.3743 29.7109 32.3743 25.5088C32.3743 21.3068 35.1002 19.1324 38.0815 19.1324C41.0913 19.1324 43.7608 21.304 43.7608 25.5088C43.7608 29.7392 41.0913 31.9391 38.0815 31.9391ZM38.0815 36.0001C44.0448 36.0001 48.3894 31.5728 48.3894 25.5088C48.3894 19.4449 44.0448 15.0459 38.0815 15.0459C32.1461 15.0459 27.7729 19.4456 27.7729 25.5088C27.7729 31.5721 32.1461 36.0001 38.0815 36.0001Z" fill="#00A868"/>
<path d="M91 25.2835C91 19.0488 87.3931 15.0459 81.6545 15.0459C76.2591 15.0459 71.6021 19.1636 71.6021 25.4245C71.6021 32.1084 76.3725 36.0001 81.484 36.0001C85.7722 36.0001 88.2463 34.3217 89.7765 32.2777C90.0726 31.8817 90.1332 31.7109 90.1332 31.6004C90.1332 31.4899 90.0619 31.4034 89.8043 31.1753L88.0151 29.6244C87.5871 29.2581 87.4444 29.1448 87.3017 29.1448C87.1591 29.1448 87.0742 29.2298 86.9607 29.3708C85.7394 31.0067 84.0358 31.9369 81.7358 31.9369C78.8344 31.9369 76.9012 29.9794 76.4103 26.8039H89.5147C90.4285 26.8061 91 26.5205 91 25.2835ZM81.4861 18.966C84.5851 18.966 86.2252 21.0425 86.3144 23.3373H76.4795C77.0181 20.8732 78.7025 18.966 81.4861 18.966Z" fill="#00A868"/>
</svg>
