<?xml version="1.0" encoding="UTF-8"?>
<svg id="Layer_2" data-name="Layer 2" xmlns="http://www.w3.org/2000/svg" viewBox="0 0 1129.27 306.1">
  <defs>
    <style>
      .cls-1 {
        fill: #004132;
      }

      .cls-2 {
        fill: #00af55;
      }
    </style>
  </defs>
  <g id="Camada_1" data-name="Camada 1">
    <g>
      <path id="hat" class="cls-2" d="M1066.99,209.96h62.09c.1-2.54.19-5.09.19-7.66-.12-103.79-84.17-187.94-187.97-188.17v62.02c69.59.11,125.95,56.56,125.94,126.15.01,2.55-.09,5.12-.24,7.66Z"/>
      <path class="cls-2" d="M590.06,56.9h14.92c.67,6.39,5.59,10.39,12.92,10.39,6.39,0,10.66-3.2,10.66-7.19,0-14.92-36.76-.67-36.76-29.04,0-11.72,10.26-19.98,24.11-19.98,15.72,0,26.51,8.66,27.17,21.71h-14.92c-.93-6.26-6.66-9.46-11.85-9.46-5.86,0-9.72,2.66-9.72,7.19,0,14.52,37.3-1.47,37.3,28.9,0,12.65-10.26,20.91-25.97,20.91s-27.04-9.06-27.84-23.44h0Z"/>
      <path class="cls-2" d="M666.76,0v12.14h16.33v13.72h-16.33v29.3c0,6.79,3.6,10.26,9.72,10.26h6.61v13.85h-8.47c-14.65,0-24.24-8.52-24.24-23.44V0h16.38Z"/>
      <path class="cls-2" d="M684.44,45.71c0-19.98,14.65-34.63,35.16-34.63s35.03,14.65,35.03,34.63-14.65,34.63-35.03,34.63-35.16-14.65-35.16-34.63h0ZM738.12,45.71c0-12.12-7.46-20.51-18.51-20.51s-18.65,8.39-18.65,20.51,7.46,20.51,18.65,20.51,18.51-8.39,18.51-20.51h0Z"/>
      <path class="cls-2" d="M790.01,11.08c19.02,0,29.21,10.92,29.21,26.64v41.56h-16.38v-38.09c0-9.19-4.44-15.58-12.83-15.58s-12.83,6.39-12.83,15.58v38.09h-16.38v-41.56c0-15.72,10.19-26.64,29.21-26.64h0Z"/>
      <path class="cls-2" d="M890.75,56.9c-2.53,14.25-15.05,23.44-31.57,23.44-21.98,0-34.23-17.32-34.23-34.9s10.92-34.37,32.9-34.37,32.63,16.38,32.63,32.37c0,2.26-.13,4.26-.27,5.59h-49.55c1.2,10.79,8.13,17.72,18.52,17.72,8.39,0,13.85-3.46,15.58-9.86h15.98ZM841.07,38.25h33.03c-.67-8.52-6.53-14.92-16.25-14.92-9.19,0-15.05,4.8-16.78,14.92h0Z"/>
      <path id="pagarme" class="cls-1" d="M309.47,304.1c-5.06-1.11-9.99-2.72-14.74-4.8-3.61-1.65-7.12-3.53-10.51-5.62-2.42-1.45-4.72-3.09-6.86-4.92l-2.04-2.04,12.35-18.29,1.72,1.74c1.53,1.35,3.12,2.61,4.8,3.76,2.53,1.85,5.21,3.5,8.01,4.92,7.61,3.61,15.92,5.52,24.35,5.6,9.78.91,19.51-2.09,27.09-8.33,5.94-6.57,8.95-15.28,8.36-24.12v-9.82c-.44.62-.91,1.23-1.39,1.81-1.35,1.51-2.8,2.92-4.34,4.22-2.27,2.06-4.76,3.86-7.43,5.39-3.47,1.82-7.16,3.19-10.98,4.08-4.83,1.25-9.8,1.86-14.78,1.81-15.2.58-30.02-4.84-41.27-15.09-11.29-11.45-17.14-27.17-16.11-43.21-.64-15.87,5.31-31.31,16.45-42.64,10.67-10.77,25.3-16.68,40.46-16.34,7.6-.12,15.14,1.32,22.17,4.22,5.02,1.82,9.62,4.67,13.48,8.35l3.67,4.08v-14.85h24.73v103.8c0,38.86-19.67,58.28-59,58.29h-.25c-6.03.02-12.04-.65-17.93-1.99h-.01ZM299.84,173.89c-6.51,7.49-9.91,17.19-9.47,27.11-.4,9.88,3.08,19.52,9.7,26.86,6.67,7.01,16.05,10.8,25.72,10.4,9.94.45,19.63-3.24,26.76-10.19,6.89-7.29,10.53-17.07,10.05-27.08.4-10.06-3.31-19.85-10.29-27.11-7.09-7.02-16.78-10.79-26.76-10.4-9.68-.45-19.08,3.36-25.71,10.43v-.02ZM0,303.61v-159.6h24.69v15.32c.31-.46.81-1.1,1.49-1.95,1.41-1.53,2.94-2.95,4.57-4.24,2.41-2.02,5.01-3.78,7.79-5.26,3.64-1.81,7.47-3.22,11.42-4.2,4.87-1.31,9.9-1.97,14.94-1.95,15.17-.53,29.85,5.42,40.36,16.36,10.74,11.7,16.39,27.21,15.67,43.08.93,16.22-4.72,32.14-15.67,44.15-10.92,10.87-25.88,16.67-41.27,16.01-4.93.03-9.85-.59-14.62-1.83-3.93-.95-7.7-2.45-11.21-4.45-2.61-1.56-5.13-3.28-7.54-5.15-1.7-1.25-3.24-2.71-4.57-4.34l-1.36-1.83v59.9l-24.69.02ZM34.07,173.75c-6.88,7.62-10.51,17.63-10.07,27.89-.57,10.35,3.06,20.48,10.07,28.11,7.22,7.08,17.07,10.81,27.17,10.3,9.62.44,18.93-3.47,25.37-10.63,6.46-7.69,9.81-17.52,9.38-27.55.42-10.23-3.05-20.25-9.72-28.02-6.53-7.26-15.94-11.24-25.7-10.87-9.98-.38-19.63,3.55-26.49,10.8v-.05ZM608.14,255.98c-3.95-3.84-6.17-9.11-6.17-14.62,0-5.51,2.22-10.79,6.17-14.64,4.03-3.92,9.46-6.07,15.09-5.94,5.62-.11,11.06,2.03,15.1,5.94,3.94,3.85,6.16,9.13,6.15,14.64,0,5.5-2.22,10.77-6.15,14.62-4.09,3.82-9.49,5.95-15.1,5.94-5.6,0-10.99-2.11-15.09-5.92v-.02ZM457.23,261.54c-15.24.57-30.09-4.93-41.27-15.31-11.33-11.7-17.17-27.64-16.09-43.89-.72-16.12,5.23-31.83,16.45-43.43,10.63-10.84,25.28-16.79,40.46-16.45,7.6-.12,15.14,1.32,22.17,4.22,5.02,1.83,9.61,4.67,13.49,8.33l3.66,4.13v-14.64h24.68v115.24h-24.7v-15.79c-.31.46-.75,1.1-1.36,1.93-1.31,1.55-2.77,2.96-4.34,4.24-2.29,1.99-4.79,3.75-7.43,5.25-3.48,1.84-7.16,3.26-10.98,4.22-4.67,1.29-9.49,1.95-14.34,1.95h-.4ZM434.04,174.22c-6.57,7.67-9.98,17.56-9.51,27.65-.42,10.13,3.06,20.03,9.72,27.67,6.57,7.21,15.98,11.14,25.72,10.74,10,.51,19.75-3.23,26.85-10.28,6.94-7.67,10.53-17.8,9.96-28.13.45-10.23-3.26-20.21-10.3-27.65-7.04-7.09-16.75-10.91-26.74-10.51-9.7-.46-19.11,3.4-25.7,10.53v-.02ZM188.86,261.54c-15.24.58-30.08-4.93-41.25-15.31-11.33-11.7-17.18-27.64-16.12-43.89-.72-16.12,5.23-31.83,16.45-43.43,10.64-10.83,25.28-16.79,40.46-16.45,7.61-.12,15.15,1.32,22.19,4.22,5.01,1.84,9.6,4.67,13.48,8.33l3.65,4.13v-14.64h24.69v115.24h-24.69v-15.79c-.44.65-.9,1.3-1.36,1.93-1.31,1.55-2.77,2.96-4.34,4.24-2.29,1.99-4.79,3.75-7.43,5.25-3.48,1.84-7.16,3.26-10.98,4.22-4.67,1.29-9.5,1.95-14.35,1.95h-.4ZM165.65,174.22c-6.57,7.67-9.96,17.56-9.47,27.65-.42,10.12,3.05,20.03,9.7,27.67,6.56,7.21,15.98,11.15,25.72,10.74,10,.5,19.74-3.23,26.85-10.28,6.94-7.67,10.53-17.8,9.94-28.13.46-10.23-3.26-20.21-10.29-27.65-7.04-7.1-16.75-10.91-26.74-10.51-9.71-.46-19.12,3.39-25.71,10.53v-.02ZM540.24,259.72v-115.46h24.69v20.8c.26-.87.6-1.71,1.02-2.51,1.11-1.97,2.33-3.88,3.67-5.71,1.8-2.63,3.95-5.01,6.39-7.08,3-2.32,6.37-4.14,9.96-5.38,4.38-1.61,9.06-2.27,13.72-1.93l-2.04,26.75c-8.72-1.41-17.6,1.34-24,7.43-6.06,6.52-9.18,15.23-8.66,24.12v58.98h-24.74Z"/>
      <path class="cls-1" d="M852.52,155.82c8.17,8.73,12.25,21.12,12.25,37.18v67.45h-29.33v-64.1c0-8.93-2.27-15.82-6.81-20.63-4.54-4.82-10.79-7.23-18.75-7.23s-14.8,2.58-19.69,7.75c-4.89,5.17-7.33,12.71-7.33,22.62v61.59h-29.33v-64.1c0-8.93-2.27-15.82-6.81-20.63-4.54-4.82-10.79-7.23-18.75-7.23s-14.8,2.58-19.69,7.75c-4.89,5.17-7.33,12.71-7.33,22.62v61.59h-29.54v-116.05h29.54v22c3.07-7.54,7.92-13.37,14.56-17.49,6.63-4.12,14.35-6.18,23.15-6.18,9.36,0,17.49,2.24,24.4,6.7,6.91,4.47,12.11,10.89,15.61,19.27,3.63-7.96,9.04-14.28,16.23-18.96,7.19-4.68,15.26-7.02,24.19-7.02,14.1,0,25.24,4.37,33.41,13.09Z"/>
      <path class="cls-1" d="M987.97,221.58c-4.36,24.53-25.9,40.34-54.32,40.34-37.82,0-58.91-29.8-58.91-60.06s18.8-59.14,56.62-59.14,56.16,28.19,56.16,55.7c0,3.9-.23,7.33-.46,9.63h-85.27c2.06,18.57,13.98,30.49,31.86,30.49,14.44,0,23.84-5.96,26.82-16.96h27.51ZM902.47,189.49h56.85c-1.15-14.67-11.23-25.67-27.96-25.67-15.82,0-25.9,8.25-28.88,25.67h0Z"/>
    </g>
  </g>
</svg>